<svg width="87" height="87" viewBox="0 0 87 87" fill="none" xmlns="http://www.w3.org/2000/svg">
<g clip-path="url(#clip0_286_62)">
<path d="M73.95 47.85V60.9L60.9 47.85H34.8C32.4926 47.85 30.2797 46.9334 28.6482 45.3018C27.0166 43.6703 26.1 41.4574 26.1 39.15V8.7C26.1 3.915 30.015 0 34.8 0H78.3C80.6074 0 82.8203 0.916605 84.4518 2.54817C86.0834 4.17974 87 6.39262 87 8.7V39.15C87 41.4574 86.0834 43.6703 84.4518 45.3018C82.8203 46.9334 80.6074 47.85 78.3 47.85H73.95ZM60.9 56.55V65.25C60.9 67.5574 59.9834 69.7703 58.3518 71.4018C56.7203 73.0334 54.5074 73.95 52.2 73.95H26.1L13.05 87V73.95H8.7C6.39262 73.95 4.17974 73.0334 2.54817 71.4018C0.916605 69.7703 0 67.5574 0 65.25V34.8C0 30.015 3.915 26.1 8.7 26.1H17.4V39.15C17.4 43.7648 19.2332 48.1905 22.4963 51.4537C25.7595 54.7168 30.1852 56.55 34.8 56.55H60.9Z" fill="#8E8E8E"/>
</g>
<defs>
<clipPath id="clip0_286_62">
<rect width="87" height="87" fill="white"/>
</clipPath>
</defs>
</svg>
