<svg width="17" height="18" viewBox="0 0 17 18" fill="none" xmlns="http://www.w3.org/2000/svg">
<g clip-path="url(#clip0_271_530)">
<path d="M15.7662 7.09642C15.7662 6.72009 15.6217 6.35918 15.3646 6.09307C15.1075 5.82697 14.7588 5.67747 14.3952 5.67747H10.0629L10.721 2.43517C10.7347 2.36423 10.7416 2.28618 10.7416 2.20814C10.7416 1.91726 10.625 1.64766 10.44 1.4561L9.71335 0.711151L5.20288 5.37949C4.94925 5.642 4.79844 5.99673 4.79844 6.38694V13.4817C4.79844 13.858 4.94288 14.2189 5.19999 14.485C5.45709 14.7511 5.8058 14.9006 6.1694 14.9006H12.3387C12.9077 14.9006 13.3944 14.5459 13.6 14.0351L15.6702 9.03328C15.7319 8.8701 15.7662 8.69983 15.7662 8.51537V7.09642ZM0.685547 14.9006H3.42748V6.38694H0.685547V14.9006Z" fill="white"/>
</g>
<defs>
<clipPath id="clip0_271_530">
<rect y="0.00161743" width="16.4516" height="17.0274" rx="8.22579" fill="white"/>
</clipPath>
</defs>
</svg>
