<svg width="20" height="19" viewBox="0 0 20 19" fill="none" xmlns="http://www.w3.org/2000/svg">
<path d="M10.0264 3.21744C10.831 3.21744 11.6027 3.54826 12.1716 4.13712C12.7406 4.72599 13.0602 5.52466 13.0602 6.35745C13.0602 7.19023 12.7406 7.9889 12.1716 8.57777C11.6027 9.16663 10.831 9.49745 10.0264 9.49745C9.22177 9.49745 8.4501 9.16663 7.88115 8.57777C7.3122 7.9889 6.99256 7.19023 6.99256 6.35745C6.99256 5.52466 7.3122 4.72599 7.88115 4.13712C8.4501 3.54826 9.22177 3.21744 10.0264 3.21744ZM10.0264 4.78744C9.62408 4.78744 9.23825 4.95285 8.95377 5.24729C8.66929 5.54172 8.50948 5.94105 8.50948 6.35745C8.50948 6.77384 8.66929 7.17317 8.95377 7.46761C9.23825 7.76204 9.62408 7.92745 10.0264 7.92745C10.4287 7.92745 10.8145 7.76204 11.099 7.46761C11.3835 7.17317 11.5433 6.77384 11.5433 6.35745C11.5433 5.94105 11.3835 5.54172 11.099 5.24729C10.8145 4.95285 10.4287 4.78744 10.0264 4.78744ZM10.0264 10.2825C12.0515 10.2825 16.094 11.3265 16.094 13.4225V15.7775H3.95874V13.4225C3.95874 11.3265 8.00131 10.2825 10.0264 10.2825ZM10.0264 11.774C7.77377 11.774 5.39981 12.9201 5.39981 13.4225V14.286H14.653V13.4225C14.653 12.9201 12.279 11.774 10.0264 11.774Z" fill="#5B5B5B"/>
</svg>
