<svg width="24" height="24" viewBox="0 0 24 24" fill="none" xmlns="http://www.w3.org/2000/svg">
<path d="M1.5 4.125C1.5 2.676 2.676 1.5 4.125 1.5H19.875C21.324 1.5 22.5 2.676 22.5 4.125V15.375C22.5 16.0712 22.2234 16.7389 21.7312 17.2312C21.2389 17.7234 20.5712 18 19.875 18H13.59L9.7305 21.8595C9.42458 22.1643 9.03528 22.3716 8.61168 22.4555C8.18808 22.5393 7.74913 22.4959 7.35017 22.3307C6.95121 22.1655 6.61009 21.8858 6.36982 21.527C6.12954 21.1682 6.00086 20.7463 6 20.3145V18H4.125C3.42881 18 2.76113 17.7234 2.26884 17.2312C1.77656 16.7389 1.5 16.0712 1.5 15.375V4.125ZM4.125 3.75C4.02554 3.75 3.93016 3.78951 3.85984 3.85984C3.78951 3.93016 3.75 4.02554 3.75 4.125V15.375C3.75 15.582 3.918 15.75 4.125 15.75H7.125C7.42337 15.75 7.70952 15.8685 7.9205 16.0795C8.13147 16.2905 8.25 16.5766 8.25 16.875V20.16L12.33 16.08C12.4343 15.9754 12.5582 15.8925 12.6946 15.8358C12.8311 15.7792 12.9773 15.75 13.125 15.75H19.875C19.9745 15.75 20.0698 15.7105 20.1402 15.6402C20.2105 15.5698 20.25 15.4745 20.25 15.375V4.125C20.25 4.02554 20.2105 3.93016 20.1402 3.85984C20.0698 3.78951 19.9745 3.75 19.875 3.75H4.125Z" fill="white"/>
</svg>
